<mxfile host="app.diagrams.net" modified="2021-03-16T13:02:07.516Z" agent="5.0 (Windows)" etag="MDim366MZF9kqU2Cz97T" version="14.4.8" type="github">
  <diagram id="6eqYqRTth382LrduP_o_" name="Page-1">
    <mxGraphModel dx="1422" dy="1904" grid="1" gridSize="10" guides="1" tooltips="1" connect="1" arrows="1" fold="1" page="1" pageScale="1" pageWidth="827" pageHeight="1169" math="0" shadow="0">
      <root>
        <mxCell id="0" />
        <mxCell id="1" parent="0" />
        <mxCell id="ppV6EDuLgcRE_63jkB19-2" value="&lt;p style=&quot;margin: 0px ; margin-top: 4px ; margin-left: 7px ; text-align: left&quot;&gt;&lt;b&gt;uc Arroseur automatisé&lt;/b&gt;&lt;/p&gt;" style="html=1;shape=mxgraph.sysml.package;overflow=fill;labelX=153;strokeWidth=2;align=center;" parent="1" vertex="1">
          <mxGeometry x="120" y="-10" width="610" height="730" as="geometry" />
        </mxCell>
        <mxCell id="ppV6EDuLgcRE_63jkB19-3" value="Opérateur" style="shape=umlActor;html=1;verticalLabelPosition=bottom;verticalAlign=top;align=center;" parent="1" vertex="1">
          <mxGeometry x="40" y="50" width="50" height="100" as="geometry" />
        </mxCell>
        <mxCell id="ppV6EDuLgcRE_63jkB19-4" value="&lt;p style=&quot;margin: 0px ; margin-top: 4px ; text-align: center&quot;&gt;&amp;lt;&amp;lt;actor&amp;gt;&amp;gt;&lt;br&gt;&lt;b&gt;240V - 50Hz&lt;/b&gt;&lt;/p&gt;&lt;p style=&quot;margin: 0px ; margin-top: 4px ; text-align: center&quot;&gt;&lt;b&gt;&lt;br&gt;&lt;/b&gt;&lt;/p&gt;" style="shape=rect;html=1;overflow=fill;html=1;whiteSpace=wrap;align=center;" parent="1" vertex="1">
          <mxGeometry x="740" y="90" width="80" height="40" as="geometry" />
        </mxCell>
        <mxCell id="ppV6EDuLgcRE_63jkB19-5" value="&lt;p style=&quot;margin: 0px ; margin-top: 4px ; text-align: center&quot;&gt;&amp;lt;&amp;lt;actor&amp;gt;&amp;gt;&lt;br&gt;&lt;b&gt;Eau&lt;/b&gt;&lt;/p&gt;" style="shape=rect;html=1;overflow=fill;html=1;whiteSpace=wrap;align=center;" parent="1" vertex="1">
          <mxGeometry x="740" y="390" width="80" height="40" as="geometry" />
        </mxCell>
        <mxCell id="ppV6EDuLgcRE_63jkB19-6" value="&lt;p style=&quot;margin: 0px ; margin-top: 4px ; text-align: center&quot;&gt;&amp;lt;&amp;lt;actor&amp;gt;&amp;gt;&lt;br&gt;&lt;b&gt;Humidité&lt;/b&gt;&lt;/p&gt;" style="shape=rect;html=1;overflow=fill;html=1;whiteSpace=wrap;align=center;" parent="1" vertex="1">
          <mxGeometry x="740" y="510" width="80" height="40" as="geometry" />
        </mxCell>
        <mxCell id="ppV6EDuLgcRE_63jkB19-7" value="&lt;p style=&quot;margin: 0px ; margin-top: 4px ; text-align: center&quot;&gt;&amp;lt;&amp;lt;actor&amp;gt;&amp;gt;&lt;br&gt;&lt;b&gt;Température&amp;nbsp;&lt;/b&gt;&lt;/p&gt;" style="shape=rect;html=1;overflow=fill;html=1;whiteSpace=wrap;align=center;" parent="1" vertex="1">
          <mxGeometry x="740" y="630" width="80" height="40" as="geometry" />
        </mxCell>
        <mxCell id="ppV6EDuLgcRE_63jkB19-9" value="Installateur" style="shape=umlActor;html=1;verticalLabelPosition=bottom;verticalAlign=top;align=center;" parent="1" vertex="1">
          <mxGeometry x="40" y="500" width="50" height="100" as="geometry" />
        </mxCell>
        <mxCell id="ppV6EDuLgcRE_63jkB19-10" value="Maintenance" style="shape=umlActor;html=1;verticalLabelPosition=bottom;verticalAlign=top;align=center;" parent="1" vertex="1">
          <mxGeometry x="40" y="280" width="50" height="100" as="geometry" />
        </mxCell>
        <mxCell id="lcaHJXhXePBUSlSVkZVQ-3" value="" style="edgeStyle=none;html=1;endArrow=block;endFill=0;endSize=12;verticalAlign=bottom;exitX=0.5;exitY=0;exitDx=0;exitDy=0;exitPerimeter=0;" parent="1" source="ppV6EDuLgcRE_63jkB19-9" target="ppV6EDuLgcRE_63jkB19-10" edge="1">
          <mxGeometry width="160" relative="1" as="geometry">
            <mxPoint x="70" y="460" as="sourcePoint" />
            <mxPoint x="80" y="400" as="targetPoint" />
          </mxGeometry>
        </mxCell>
        <mxCell id="lcaHJXhXePBUSlSVkZVQ-4" value="" style="edgeStyle=none;html=1;endArrow=block;endFill=0;endSize=12;verticalAlign=bottom;exitX=0.5;exitY=0;exitDx=0;exitDy=0;exitPerimeter=0;" parent="1" source="ppV6EDuLgcRE_63jkB19-10" target="ppV6EDuLgcRE_63jkB19-3" edge="1">
          <mxGeometry width="160" relative="1" as="geometry">
            <mxPoint x="64.5" y="260" as="sourcePoint" />
            <mxPoint x="64.5" y="180" as="targetPoint" />
          </mxGeometry>
        </mxCell>
        <mxCell id="lcaHJXhXePBUSlSVkZVQ-5" value="Mesurer paramètres atmosphérique" style="shape=ellipse;html=1;strokeWidth=3;fontStyle=1;whiteSpace=wrap;align=center;perimeter=ellipsePerimeter;" parent="1" vertex="1">
          <mxGeometry x="414" y="450" width="120" height="60" as="geometry" />
        </mxCell>
        <mxCell id="lcaHJXhXePBUSlSVkZVQ-7" value="Distribuer l&#39;eau" style="shape=ellipse;html=1;strokeWidth=3;fontStyle=1;whiteSpace=wrap;align=center;perimeter=ellipsePerimeter;" parent="1" vertex="1">
          <mxGeometry x="534" y="240" width="120" height="60" as="geometry" />
        </mxCell>
        <mxCell id="lcaHJXhXePBUSlSVkZVQ-8" value="" style="edgeStyle=none;html=1;endArrow=none;verticalAlign=bottom;exitX=0;exitY=0.5;exitDx=0;exitDy=0;entryX=1;entryY=0;entryDx=0;entryDy=0;" parent="1" source="ppV6EDuLgcRE_63jkB19-5" target="lcaHJXhXePBUSlSVkZVQ-5" edge="1">
          <mxGeometry width="160" relative="1" as="geometry">
            <mxPoint x="400" y="410" as="sourcePoint" />
            <mxPoint x="534" y="372" as="targetPoint" />
          </mxGeometry>
        </mxCell>
        <mxCell id="lcaHJXhXePBUSlSVkZVQ-9" value="" style="edgeStyle=none;html=1;endArrow=none;verticalAlign=bottom;exitX=0;exitY=0.5;exitDx=0;exitDy=0;entryX=1;entryY=1;entryDx=0;entryDy=0;" parent="1" source="ppV6EDuLgcRE_63jkB19-5" target="lcaHJXhXePBUSlSVkZVQ-7" edge="1">
          <mxGeometry width="160" relative="1" as="geometry">
            <mxPoint x="750" y="420" as="sourcePoint" />
            <mxPoint x="544" y="382" as="targetPoint" />
          </mxGeometry>
        </mxCell>
        <mxCell id="lcaHJXhXePBUSlSVkZVQ-10" value="" style="edgeStyle=none;html=1;endArrow=none;verticalAlign=bottom;entryX=0;entryY=0.5;entryDx=0;entryDy=0;exitX=1;exitY=0.5;exitDx=0;exitDy=0;" parent="1" source="lcaHJXhXePBUSlSVkZVQ-5" target="ppV6EDuLgcRE_63jkB19-6" edge="1">
          <mxGeometry width="160" relative="1" as="geometry">
            <mxPoint x="400" y="410" as="sourcePoint" />
            <mxPoint x="560" y="410" as="targetPoint" />
          </mxGeometry>
        </mxCell>
        <mxCell id="lcaHJXhXePBUSlSVkZVQ-11" value="Arroser" style="shape=ellipse;html=1;strokeWidth=3;fontStyle=1;whiteSpace=wrap;align=center;perimeter=ellipsePerimeter;" parent="1" vertex="1">
          <mxGeometry x="400" y="30" width="120" height="60" as="geometry" />
        </mxCell>
        <mxCell id="lcaHJXhXePBUSlSVkZVQ-12" value="&amp;lt;&amp;lt;include&amp;gt;&amp;gt;" style="edgeStyle=none;html=1;endArrow=open;verticalAlign=bottom;dashed=1;labelBackgroundColor=none;exitX=1;exitY=1;exitDx=0;exitDy=0;entryX=0;entryY=0;entryDx=0;entryDy=0;" parent="1" source="lcaHJXhXePBUSlSVkZVQ-11" target="lcaHJXhXePBUSlSVkZVQ-7" edge="1">
          <mxGeometry width="160" relative="1" as="geometry">
            <mxPoint x="400" y="410" as="sourcePoint" />
            <mxPoint x="560" y="410" as="targetPoint" />
          </mxGeometry>
        </mxCell>
        <mxCell id="lcaHJXhXePBUSlSVkZVQ-13" value="&amp;lt;&amp;lt;include&amp;gt;&amp;gt;" style="edgeStyle=none;html=1;endArrow=open;verticalAlign=bottom;dashed=1;labelBackgroundColor=none;exitX=0.5;exitY=1;exitDx=0;exitDy=0;" parent="1" source="lcaHJXhXePBUSlSVkZVQ-11" target="lcaHJXhXePBUSlSVkZVQ-5" edge="1">
          <mxGeometry width="160" relative="1" as="geometry">
            <mxPoint x="452.4264068712082" y="91.2132034356041" as="sourcePoint" />
            <mxPoint x="474" y="330" as="targetPoint" />
          </mxGeometry>
        </mxCell>
        <mxCell id="lcaHJXhXePBUSlSVkZVQ-14" value="Planifier les arrosages" style="shape=ellipse;html=1;strokeWidth=3;fontStyle=1;whiteSpace=wrap;align=center;perimeter=ellipsePerimeter;" parent="1" vertex="1">
          <mxGeometry x="210" y="100" width="120" height="60" as="geometry" />
        </mxCell>
        <mxCell id="lcaHJXhXePBUSlSVkZVQ-15" style="edgeStyle=none;rounded=0;orthogonalLoop=1;jettySize=auto;html=1;exitX=0.5;exitY=0;exitDx=0;exitDy=0;" parent="1" source="lcaHJXhXePBUSlSVkZVQ-14" target="lcaHJXhXePBUSlSVkZVQ-14" edge="1">
          <mxGeometry relative="1" as="geometry" />
        </mxCell>
        <mxCell id="lcaHJXhXePBUSlSVkZVQ-16" value="" style="edgeStyle=none;html=1;endArrow=none;verticalAlign=bottom;exitX=1;exitY=0.3333333333333333;exitDx=0;exitDy=0;exitPerimeter=0;" parent="1" source="ppV6EDuLgcRE_63jkB19-3" edge="1">
          <mxGeometry width="160" relative="1" as="geometry">
            <mxPoint x="560" y="50" as="sourcePoint" />
            <mxPoint x="400" y="60" as="targetPoint" />
          </mxGeometry>
        </mxCell>
        <mxCell id="lcaHJXhXePBUSlSVkZVQ-18" value="Installation" style="shape=ellipse;html=1;strokeWidth=3;fontStyle=1;whiteSpace=wrap;align=center;perimeter=ellipsePerimeter;" parent="1" vertex="1">
          <mxGeometry x="220" y="600" width="120" height="60" as="geometry" />
        </mxCell>
        <mxCell id="lcaHJXhXePBUSlSVkZVQ-19" value="configurer le système" style="shape=ellipse;html=1;strokeWidth=3;fontStyle=1;whiteSpace=wrap;align=center;perimeter=ellipsePerimeter;" parent="1" vertex="1">
          <mxGeometry x="180" y="330" width="120" height="60" as="geometry" />
        </mxCell>
        <mxCell id="lcaHJXhXePBUSlSVkZVQ-21" value="" style="edgeStyle=none;html=1;endArrow=none;verticalAlign=bottom;exitX=1;exitY=0.3333333333333333;exitDx=0;exitDy=0;exitPerimeter=0;entryX=0.5;entryY=0;entryDx=0;entryDy=0;" parent="1" source="ppV6EDuLgcRE_63jkB19-10" target="lcaHJXhXePBUSlSVkZVQ-19" edge="1">
          <mxGeometry width="160" relative="1" as="geometry">
            <mxPoint x="430" y="430" as="sourcePoint" />
            <mxPoint x="590" y="430" as="targetPoint" />
          </mxGeometry>
        </mxCell>
        <mxCell id="lcaHJXhXePBUSlSVkZVQ-22" value="" style="edgeStyle=none;html=1;endArrow=none;verticalAlign=bottom;exitX=1;exitY=0.3333333333333333;exitDx=0;exitDy=0;exitPerimeter=0;entryX=0.5;entryY=0;entryDx=0;entryDy=0;" parent="1" source="ppV6EDuLgcRE_63jkB19-9" target="lcaHJXhXePBUSlSVkZVQ-18" edge="1">
          <mxGeometry width="160" relative="1" as="geometry">
            <mxPoint x="430" y="430" as="sourcePoint" />
            <mxPoint x="590" y="430" as="targetPoint" />
          </mxGeometry>
        </mxCell>
        <mxCell id="lcaHJXhXePBUSlSVkZVQ-23" value="" style="edgeStyle=none;html=1;endArrow=none;verticalAlign=bottom;entryX=0;entryY=0.5;entryDx=0;entryDy=0;exitX=1;exitY=1;exitDx=0;exitDy=0;" parent="1" source="lcaHJXhXePBUSlSVkZVQ-5" target="ppV6EDuLgcRE_63jkB19-7" edge="1">
          <mxGeometry width="160" relative="1" as="geometry">
            <mxPoint x="474" y="590" as="sourcePoint" />
            <mxPoint x="590" y="510" as="targetPoint" />
          </mxGeometry>
        </mxCell>
        <mxCell id="lcaHJXhXePBUSlSVkZVQ-24" value="gérer les vannes" style="shape=ellipse;html=1;strokeWidth=3;fontStyle=1;whiteSpace=wrap;align=center;perimeter=ellipsePerimeter;" parent="1" vertex="1">
          <mxGeometry x="300" y="210" width="120" height="60" as="geometry" />
        </mxCell>
        <mxCell id="lcaHJXhXePBUSlSVkZVQ-28" value="Vérifier statut système" style="shape=ellipse;html=1;strokeWidth=3;fontStyle=1;whiteSpace=wrap;align=center;perimeter=ellipsePerimeter;" parent="1" vertex="1">
          <mxGeometry x="150" y="200" width="120" height="60" as="geometry" />
        </mxCell>
        <mxCell id="lcaHJXhXePBUSlSVkZVQ-29" value="" style="edgeStyle=none;html=1;endArrow=none;verticalAlign=bottom;exitX=1;exitY=0.3333333333333333;exitDx=0;exitDy=0;exitPerimeter=0;" parent="1" source="ppV6EDuLgcRE_63jkB19-3" target="lcaHJXhXePBUSlSVkZVQ-28" edge="1">
          <mxGeometry width="160" relative="1" as="geometry">
            <mxPoint x="100" y="93.33333333333326" as="sourcePoint" />
            <mxPoint x="220" y="120" as="targetPoint" />
          </mxGeometry>
        </mxCell>
        <mxCell id="lcaHJXhXePBUSlSVkZVQ-34" value="&amp;lt;&amp;lt;include&amp;gt;&amp;gt;" style="edgeStyle=none;html=1;endArrow=open;verticalAlign=bottom;dashed=1;labelBackgroundColor=none;exitX=0.5;exitY=1;exitDx=0;exitDy=0;entryX=0.5;entryY=0;entryDx=0;entryDy=0;" parent="1" source="lcaHJXhXePBUSlSVkZVQ-11" target="lcaHJXhXePBUSlSVkZVQ-24" edge="1">
          <mxGeometry width="160" relative="1" as="geometry">
            <mxPoint x="410" y="100" as="sourcePoint" />
            <mxPoint x="484" y="340" as="targetPoint" />
          </mxGeometry>
        </mxCell>
        <mxCell id="lcaHJXhXePBUSlSVkZVQ-35" value="vérifier le fonctionnement" style="shape=ellipse;html=1;strokeWidth=3;fontStyle=1;whiteSpace=wrap;align=center;perimeter=ellipsePerimeter;" parent="1" vertex="1">
          <mxGeometry x="180" y="410" width="120" height="60" as="geometry" />
        </mxCell>
        <mxCell id="lcaHJXhXePBUSlSVkZVQ-36" value="" style="edgeStyle=none;html=1;endArrow=none;verticalAlign=bottom;exitX=1;exitY=0.3333333333333333;exitDx=0;exitDy=0;exitPerimeter=0;entryX=0;entryY=0;entryDx=0;entryDy=0;" parent="1" source="ppV6EDuLgcRE_63jkB19-10" target="lcaHJXhXePBUSlSVkZVQ-35" edge="1">
          <mxGeometry width="160" relative="1" as="geometry">
            <mxPoint x="100" y="323.3333333333335" as="sourcePoint" />
            <mxPoint x="250" y="340" as="targetPoint" />
          </mxGeometry>
        </mxCell>
        <mxCell id="lcaHJXhXePBUSlSVkZVQ-38" value="" style="edgeStyle=none;html=1;endArrow=none;verticalAlign=bottom;exitX=0;exitY=0.5;exitDx=0;exitDy=0;entryX=1;entryY=0.5;entryDx=0;entryDy=0;" parent="1" source="ppV6EDuLgcRE_63jkB19-4" target="lcaHJXhXePBUSlSVkZVQ-24" edge="1">
          <mxGeometry width="160" relative="1" as="geometry">
            <mxPoint x="750" y="420" as="sourcePoint" />
            <mxPoint x="544" y="382" as="targetPoint" />
          </mxGeometry>
        </mxCell>
        <mxCell id="lcaHJXhXePBUSlSVkZVQ-44" value="&amp;lt;&amp;lt;include&amp;gt;&amp;gt;" style="edgeStyle=none;html=1;endArrow=open;verticalAlign=bottom;dashed=1;labelBackgroundColor=none;exitX=1;exitY=1;exitDx=0;exitDy=0;entryX=0;entryY=0;entryDx=0;entryDy=0;" parent="1" source="lcaHJXhXePBUSlSVkZVQ-28" target="lcaHJXhXePBUSlSVkZVQ-5" edge="1">
          <mxGeometry width="160" relative="1" as="geometry">
            <mxPoint x="262.42640687119297" y="261.21320343559637" as="sourcePoint" />
            <mxPoint x="424" y="370" as="targetPoint" />
          </mxGeometry>
        </mxCell>
        <mxCell id="lcaHJXhXePBUSlSVkZVQ-46" value="&amp;lt;&amp;lt;include&amp;gt;&amp;gt;" style="edgeStyle=none;html=1;endArrow=open;verticalAlign=bottom;dashed=1;labelBackgroundColor=none;exitX=1;exitY=1;exitDx=0;exitDy=0;entryX=0;entryY=0;entryDx=0;entryDy=0;" parent="1" source="lcaHJXhXePBUSlSVkZVQ-14" target="lcaHJXhXePBUSlSVkZVQ-24" edge="1">
          <mxGeometry width="160" relative="1" as="geometry">
            <mxPoint x="410" y="100" as="sourcePoint" />
            <mxPoint x="370" y="220" as="targetPoint" />
          </mxGeometry>
        </mxCell>
        <mxCell id="lcaHJXhXePBUSlSVkZVQ-47" value="&amp;lt;&amp;lt;include&amp;gt;&amp;gt;" style="edgeStyle=none;html=1;endArrow=open;verticalAlign=bottom;dashed=1;labelBackgroundColor=none;exitX=0;exitY=0.5;exitDx=0;exitDy=0;entryX=0.967;entryY=0.333;entryDx=0;entryDy=0;entryPerimeter=0;" parent="1" source="lcaHJXhXePBUSlSVkZVQ-11" target="lcaHJXhXePBUSlSVkZVQ-14" edge="1">
          <mxGeometry width="160" relative="1" as="geometry">
            <mxPoint x="282.42640687119297" y="141.21320343559637" as="sourcePoint" />
            <mxPoint x="327.57359312880703" y="228.78679656440363" as="targetPoint" />
            <Array as="points">
              <mxPoint x="370" y="90" />
            </Array>
          </mxGeometry>
        </mxCell>
        <mxCell id="lcaHJXhXePBUSlSVkZVQ-48" value="&amp;lt;&amp;lt;include&amp;gt;&amp;gt;" style="edgeStyle=none;html=1;endArrow=open;verticalAlign=bottom;dashed=1;labelBackgroundColor=none;exitX=1;exitY=0.5;exitDx=0;exitDy=0;entryX=0;entryY=0.5;entryDx=0;entryDy=0;" parent="1" source="lcaHJXhXePBUSlSVkZVQ-35" target="lcaHJXhXePBUSlSVkZVQ-5" edge="1">
          <mxGeometry width="160" relative="1" as="geometry">
            <mxPoint x="262.42640687119297" y="261.21320343559637" as="sourcePoint" />
            <mxPoint x="441.57359312880703" y="468.78679656440363" as="targetPoint" />
          </mxGeometry>
        </mxCell>
        <mxCell id="lcaHJXhXePBUSlSVkZVQ-52" value="&lt;p style=&quot;margin: 0px ; margin-top: 4px ; text-align: center&quot;&gt;&amp;lt;&amp;lt;actor&amp;gt;&amp;gt;&lt;br&gt;&lt;b&gt;Sol&lt;/b&gt;&lt;/p&gt;" style="shape=rect;html=1;overflow=fill;html=1;whiteSpace=wrap;align=center;" parent="1" vertex="1">
          <mxGeometry x="740" y="280" width="80" height="40" as="geometry" />
        </mxCell>
        <mxCell id="lcaHJXhXePBUSlSVkZVQ-55" value="" style="edgeStyle=none;html=1;endArrow=none;verticalAlign=bottom;exitX=1;exitY=0.5;exitDx=0;exitDy=0;entryX=0;entryY=0.5;entryDx=0;entryDy=0;" parent="1" source="lcaHJXhXePBUSlSVkZVQ-11" target="lcaHJXhXePBUSlSVkZVQ-52" edge="1">
          <mxGeometry width="160" relative="1" as="geometry">
            <mxPoint x="534" y="53.33333333333326" as="sourcePoint" />
            <mxPoint x="844" y="30" as="targetPoint" />
          </mxGeometry>
        </mxCell>
        <mxCell id="Nn6LtOXa8Ds1HymFLCa2-1" value="Capteurs: humidité sol&lt;br&gt;température extérieure&lt;br&gt;pression entrée et sortie vanne" style="shape=note;size=15;align=left;spacingLeft=10;html=1;whiteSpace=wrap;" vertex="1" parent="1">
          <mxGeometry x="370" y="540" width="196" height="60" as="geometry" />
        </mxCell>
        <mxCell id="Nn6LtOXa8Ds1HymFLCa2-2" value="" style="endArrow=none;dashed=1;html=1;entryX=0;entryY=0;entryDx=90.5;entryDy=0;entryPerimeter=0;exitX=0.5;exitY=1;exitDx=0;exitDy=0;" edge="1" parent="1" source="lcaHJXhXePBUSlSVkZVQ-5" target="Nn6LtOXa8Ds1HymFLCa2-1">
          <mxGeometry width="50" height="50" relative="1" as="geometry">
            <mxPoint x="250" y="550" as="sourcePoint" />
            <mxPoint x="300" y="500" as="targetPoint" />
          </mxGeometry>
        </mxCell>
      </root>
    </mxGraphModel>
  </diagram>
</mxfile>
